<svg width="679" height="312" viewBox="0 0 679 312" fill="none" xmlns="http://www.w3.org/2000/svg">
<path d="M128.048 173.511H124.322V311.685H128.048V173.511Z" fill="#3F3D56"/>
<path d="M162.434 149.37C162.672 197.686 126.464 237.012 126.464 237.012C126.464 237.012 89.8724 198.001 89.6352 149.685C89.398 101.369 125.605 62.0437 125.605 62.0437C125.605 62.0437 162.197 101.054 162.434 149.37Z" fill="#8CBF91"/>
<path d="M82.0582 132.549H77.2276V311.685H82.0582V132.549Z" fill="#3F3D56"/>
<path d="M126.638 113.628C126.946 176.268 80.0049 227.251 80.0049 227.251C80.0049 227.251 32.5653 176.676 32.2577 114.037C31.9502 51.3971 78.8913 0.413528 78.8913 0.413528C78.8913 0.413528 126.331 50.9886 126.638 113.628Z" fill="#8CBF91"/>
<path d="M39.1098 173.511H35.3838V311.685H39.1098V173.511Z" fill="#3F3D56"/>
<path d="M73.4961 149.37C73.7333 197.686 37.526 237.012 37.526 237.012C37.526 237.012 0.934151 198.001 0.696961 149.685C0.459771 101.369 36.6671 62.0437 36.6671 62.0437C36.6671 62.0437 73.2589 101.054 73.4961 149.37Z" fill="#8CBF91"/>
<path d="M367.334 173.511H363.608V311.685H367.334V173.511Z" fill="#3F3D56"/>
<path d="M643.584 186.751H639.858V324.926H643.584V186.751Z" fill="#3F3D56"/>
<path d="M401.721 149.37C401.958 197.686 365.751 237.012 365.751 237.012C365.751 237.012 329.159 198.001 328.922 149.685C328.684 101.369 364.892 62.0437 364.892 62.0437C364.892 62.0437 401.484 101.054 401.721 149.37Z" fill="#8CBF91"/>
<path d="M321.345 132.549H316.514V311.685H321.345V132.549Z" fill="#3F3D56"/>
<path d="M365.925 113.628C366.232 176.268 319.291 227.251 319.291 227.251C319.291 227.251 271.852 176.676 271.544 114.037C271.237 51.3971 318.178 0.413528 318.178 0.413528C318.178 0.413528 365.617 50.9886 365.925 113.628Z" fill="#8CBF91"/>
<path d="M278.396 173.511H274.67V311.685H278.396V173.511Z" fill="#3F3D56"/>
<path d="M312.782 149.37C313.02 197.686 276.812 237.012 276.812 237.012C276.812 237.012 240.22 198.001 239.983 149.685C239.746 101.369 275.953 62.0437 275.953 62.0437C275.953 62.0437 312.545 101.054 312.782 149.37Z" fill="#8CBF91"/>
<path d="M678.065 191.12C678.302 239.436 642.095 278.761 642.095 278.761C642.095 278.761 605.503 239.751 605.266 191.435C605.028 143.119 641.236 103.793 641.236 103.793C641.236 103.793 677.828 142.804 678.065 191.12Z" fill="#8CBF91"/>
</svg>
