<svg width="1074" height="500" viewBox="0 0 1074 500" fill="none" xmlns="http://www.w3.org/2000/svg">
<g id="undraw_daylight">
<g clip-path="url(#clip0)">
<path id="light-bg" d="M536.779 0C241.723 0 2.27711 223.493 0 500H1073.56C1071.28 223.493 831.835 0 536.779 0Z" fill="#C0E2F1"/>
<g id="trees">
<path id="Vector" d="M242.048 361.511H238.322V499.685H242.048V361.511Z" fill="#3F3D56"/>
<path id="Vector_2" d="M276.434 337.37C276.672 385.686 240.464 425.012 240.464 425.012C240.464 425.012 203.872 386.001 203.635 337.685C203.398 289.369 239.605 250.044 239.605 250.044C239.605 250.044 276.197 289.054 276.434 337.37Z" fill="#8CBF91"/>
<path id="Vector_3" d="M196.058 320.549H191.228V499.685H196.058V320.549Z" fill="#3F3D56"/>
<path id="Vector_4" d="M240.638 301.628C240.946 364.268 194.005 415.251 194.005 415.251C194.005 415.251 146.565 364.676 146.258 302.037C145.95 239.397 192.891 188.414 192.891 188.414C192.891 188.414 240.331 238.989 240.638 301.628Z" fill="#8CBF91"/>
<path id="Vector_5" d="M153.11 361.511H149.384V499.685H153.11V361.511Z" fill="#3F3D56"/>
<path id="Vector_6" d="M187.496 337.37C187.733 385.686 151.526 425.012 151.526 425.012C151.526 425.012 114.934 386.001 114.697 337.685C114.46 289.369 150.667 250.044 150.667 250.044C150.667 250.044 187.259 289.054 187.496 337.37Z" fill="#8CBF91"/>
<path id="Vector_7" d="M481.334 361.511H477.608V499.685H481.334V361.511Z" fill="#3F3D56"/>
<path id="Vector_8" d="M757.584 374.751H753.858V512.926H757.584V374.751Z" fill="#3F3D56"/>
<path id="Vector_9" d="M515.721 337.37C515.958 385.686 479.751 425.012 479.751 425.012C479.751 425.012 443.159 386.001 442.922 337.685C442.684 289.369 478.892 250.044 478.892 250.044C478.892 250.044 515.484 289.054 515.721 337.37Z" fill="#8CBF91"/>
<path id="Vector_10" d="M435.345 320.549H430.514V499.685H435.345V320.549Z" fill="#3F3D56"/>
<path id="Vector_11" d="M479.925 301.628C480.232 364.268 433.291 415.251 433.291 415.251C433.291 415.251 385.852 364.676 385.544 302.037C385.237 239.397 432.178 188.414 432.178 188.414C432.178 188.414 479.617 238.989 479.925 301.628Z" fill="#8CBF91"/>
<path id="Vector_12" d="M392.396 361.511H388.67V499.685H392.396V361.511Z" fill="#3F3D56"/>
<path id="Vector_13" d="M426.782 337.37C427.02 385.686 390.812 425.012 390.812 425.012C390.812 425.012 354.22 386.001 353.983 337.685C353.746 289.369 389.953 250.044 389.953 250.044C389.953 250.044 426.545 289.054 426.782 337.37Z" fill="#8CBF91"/>
<path id="Vector_14" d="M792.065 379.12C792.302 427.436 756.095 466.761 756.095 466.761C756.095 466.761 719.503 427.751 719.266 379.435C719.028 331.119 755.236 291.793 755.236 291.793C755.236 291.793 791.828 330.804 792.065 379.12Z" fill="#8CBF91"/>
</g>
<g id="plants">
<path id="Vector_15" d="M318.318 487.36C320.452 494.763 327.758 499.348 327.758 499.348C327.758 499.348 331.606 491.93 329.473 484.527C327.34 477.123 320.033 472.538 320.033 472.538C320.033 472.538 316.185 479.956 318.318 487.36Z" fill="#8CBF91"/>
<path id="Vector_16" d="M321.453 485.769C327.306 491.118 328.021 499.342 328.021 499.342C328.021 499.342 319.246 498.892 313.392 493.543C307.539 488.193 306.824 479.969 306.824 479.969C306.824 479.969 315.599 480.419 321.453 485.769Z" fill="#8CBF91"/>
<path id="Vector_17" d="M631.962 486.449C627.748 493.02 629.282 501.144 629.282 501.144C629.282 501.144 637.648 498.616 641.861 492.045C646.075 485.475 644.541 477.351 644.541 477.351C644.541 477.351 636.175 479.879 631.962 486.449Z" fill="#8CBF91"/>
<path id="Vector_18" d="M635.355 487.472C635.295 495.141 629.469 501.318 629.469 501.318C629.469 501.318 623.74 495.061 623.799 487.392C623.859 479.723 629.685 473.546 629.685 473.546C629.685 473.546 635.414 479.802 635.355 487.472Z" fill="#8CBF91"/>
<path id="Vector_19" d="M81.1495 487.36C83.2827 494.763 90.5894 499.348 90.5894 499.348C90.5894 499.348 94.4375 491.93 92.3043 484.527C90.1711 477.123 82.8644 472.538 82.8644 472.538C82.8644 472.538 79.0163 479.956 81.1495 487.36Z" fill="#8CBF91"/>
<path id="Vector_20" d="M84.2841 485.769C90.1376 491.118 90.8526 499.342 90.8526 499.342C90.8526 499.342 82.0772 498.892 76.2236 493.543C70.3701 488.193 69.6552 479.969 69.6552 479.969C69.6552 479.969 78.4306 480.419 84.2841 485.769Z" fill="#8CBF91"/>
</g>
<g id="campfire">
<path id="Vector_21" opacity="0.1" d="M998.033 493.826C998.841 493.826 999.616 493.525 1000.19 492.988C1000.76 492.452 1001.08 491.724 1001.08 490.966C1001.08 490.207 1000.76 489.479 1000.19 488.943C999.616 488.407 998.841 488.105 998.033 488.105H972.983C973.791 489.622 973.924 491.379 973.352 492.988C972.781 494.597 971.552 495.928 969.936 496.686C969.936 497.445 970.257 498.172 970.828 498.709C971.4 499.245 972.174 499.547 972.983 499.547H998.033C998.841 499.547 999.616 499.245 1000.19 498.709C1000.76 498.172 1001.08 497.445 1001.08 496.686C1001.08 495.928 1000.76 495.2 1000.19 494.664C999.616 494.127 998.841 493.826 998.033 493.826Z" fill="#434253"/>
<path id="Vector_22" d="M996.679 483.338C996.679 493.869 991.678 490.966 985.508 490.966C979.338 490.966 974.337 493.869 974.337 483.338C974.337 472.806 985.508 452.827 985.508 452.827C985.508 452.827 996.679 472.806 996.679 483.338Z" fill="#FF6584"/>
<path id="Vector_23" opacity="0.1" d="M990.586 487.367C990.586 492.154 988.312 490.834 985.508 490.834C982.703 490.834 980.43 492.154 980.43 487.367C980.43 482.58 985.508 473.499 985.508 473.499C985.508 473.499 990.586 482.58 990.586 487.367Z" fill="black"/>
</g>
<g id="fire-sparks">
<path id="Vector_24" d="M999.511 455.197C999.511 455.197 1001.83 452.931 1001.79 450.709L999.511 455.197Z" fill="#FF6584"/>
<path id="Vector_25" d="M975.726 436.318C975.726 436.318 974.757 433.309 972.671 432.259L975.726 436.318Z" fill="#FF6584"/>
<path id="Vector_26" d="M952.433 395.563C952.433 395.563 951.464 392.554 949.377 391.504L952.433 395.563Z" fill="#FF6584"/>
<path id="Vector_27" d="M979.961 450.234C979.961 450.234 978.993 447.226 976.906 446.176L979.961 450.234Z" fill="#FF6584"/>
<path id="Vector_28" d="M976.785 401.527C976.785 401.527 975.816 398.518 973.729 397.468L976.785 401.527Z" fill="#FF6584"/>
<path id="Vector_29" d="M970.432 419.419C970.432 419.419 969.464 416.41 967.377 415.361L970.432 419.419Z" fill="#FF6584"/>
<path id="Vector_30" d="M997.393 486.012C997.393 486.012 999.714 483.746 999.668 481.524L997.393 486.012Z" fill="#FF6584"/>
<path id="Vector_31" d="M1001.63 469.113C1001.63 469.113 1003.95 466.848 1003.9 464.625L1001.63 469.113Z" fill="#FF6584"/>
</g>
<g id="moon">
<path id="Vector_32" d="M354.469 118.831C370.258 118.831 383.057 106.815 383.057 91.992C383.057 77.1692 370.258 65.153 354.469 65.153C338.681 65.153 325.882 77.1692 325.882 91.992C325.882 106.815 338.681 118.831 354.469 118.831Z" fill="#F1F37B"/>
</g>
</g>
</g>
<defs>
<clipPath id="clip0">
<rect width="1073.56" height="500" fill="white"/>
</clipPath>
</defs>
</svg>
